# Blender v2.79 (sub 0) OBJ File: ''
# www.blender.org
v 500.000000 -500.000000 500.000000
v 500.000000 500.000000 500.000000
v 500.000000 -500.000000 -500.000000
v 500.000000 500.000000 -500.000000
v -500.000000 -500.000000 500.000000
v -500.000000 500.000000 500.000000
v 500.000000 -500.000000 500.000000
v 500.000000 500.000000 500.000000
v -500.000000 -500.000000 500.000000
v -500.000000 -500.000000 -500.000000
v 500.000000 -500.000000 500.000000
v 500.000000 -500.000000 -500.000000
v -500.000000 -500.000000 500.000000
v -500.000000 500.000000 500.000000
v -500.000000 -500.000000 -500.000000
v -500.000000 500.000000 -500.000000
v -500.000000 500.000000 500.000000
v -500.000000 500.000000 -500.000000
v 500.000000 500.000000 500.000000
v 500.000000 500.000000 -500.000000
v -500.000000 -500.000000 -500.000000
v -500.000000 500.000000 -500.000000
v 500.000000 -500.000000 -500.000000
v 500.000000 500.000000 -500.000000
v 500.000000 500.000000 -500.000000
v 500.000000 -500.000000 500.000000
v -500.000000 -500.000000 500.000000
v 500.000000 500.000000 500.000000
v -500.000000 -500.000000 500.000000
v 500.000000 -500.000000 -500.000000
v -500.000000 -500.000000 -500.000000
v -500.000000 500.000000 500.000000
v -500.000000 500.000000 -500.000000
v 500.000000 500.000000 500.000000
v -500.000000 500.000000 -500.000000
v 500.000000 -500.000000 -500.000000
vt 0.000000 0.333333
vt 0.333333 0.000000
vt 0.333333 0.333333
vt 0.000000 0.333333
vt 0.000000 0.000000
vt 0.333333 0.000000
vt 0.333333 0.333333
vt 0.666667 0.666667
vt 0.333333 0.666667
vt 0.333333 0.333333
vt 0.666667 0.333333
vt 0.666667 0.666667
vt 0.666667 0.333333
vt 1.000000 0.000000
vt 1.000000 0.333333
vt 0.666667 0.333333
vt 0.666667 0.000000
vt 1.000000 0.000000
vt 0.333333 0.333333
vt 0.666667 0.000000
vt 0.666667 0.333333
vt 0.333333 0.333333
vt 0.333333 0.000000
vt 0.666667 0.000000
vt 0.333333 1.000000
vt 0.000000 0.666667
vt 0.333333 0.666667
vt 0.333333 1.000000
vt 0.000000 1.000000
vt 0.000000 0.666667
vt 0.000000 0.666667
vt 0.333333 0.333333
vt 0.333333 0.666667
vt 0.000000 0.666667
vt 0.000000 0.333333
vt 0.333333 0.333333
vn 1.0000 0.0000 0.0000
vn 0.0000 0.0000 1.0000
vn 0.0000 -1.0000 0.0000
vn -1.0000 0.0000 0.0000
vn 0.0000 1.0000 0.0000
vn 0.0000 0.0000 -1.0000
s off
f 25/1/1 26/2/1 3/3/1
f 4/4/1 2/5/1 1/6/1
f 28/7/2 5/8/2 7/9/2
f 8/10/2 6/11/2 27/12/2
f 30/13/3 29/14/3 10/15/3
f 12/16/3 11/17/3 9/18/3
f 32/19/4 31/20/4 13/21/4
f 14/22/4 16/23/4 15/24/4
f 18/25/5 34/26/5 20/27/5
f 33/28/5 17/29/5 19/30/5
f 35/31/6 36/32/6 21/33/6
f 22/34/6 24/35/6 23/36/6
