# Blender v2.79 (sub 0) OBJ File: ''
# www.blender.org
o Cube_Cube.001
v -1.000000 -1.000000 1.000000
v -1.000000 1.000000 1.000000
v -1.000000 -1.000000 -1.000000
v -1.000000 1.000000 -1.000000
v 1.000000 -1.000000 1.000000
v 1.000000 1.000000 1.000000
v 1.000000 -1.000000 -1.000000
v 1.000000 1.000000 -1.000000
v -1.000000 -1.000000 -1.000000
v -1.000000 -1.000000 -1.000000
v -1.000000 -1.000000 -1.000000
v -1.000000 -1.000000 1.000000
v -1.000000 -1.000000 1.000000
v -1.000000 -1.000000 1.000000
v -1.000000 -1.000000 1.000000
v -1.000000 1.000000 1.000000
v -1.000000 1.000000 1.000000
v -1.000000 1.000000 1.000000
v -1.000000 1.000000 -1.000000
v -1.000000 1.000000 -1.000000
v -1.000000 1.000000 -1.000000
v -1.000000 1.000000 -1.000000
v 1.000000 -1.000000 -1.000000
v 1.000000 -1.000000 -1.000000
v 1.000000 -1.000000 -1.000000
v 1.000000 -1.000000 -1.000000
v 1.000000 1.000000 -1.000000
v 1.000000 1.000000 -1.000000
v 1.000000 1.000000 -1.000000
v 1.000000 -1.000000 1.000000
v 1.000000 -1.000000 1.000000
v 1.000000 -1.000000 1.000000
v 1.000000 1.000000 1.000000
v 1.000000 1.000000 1.000000
v 1.000000 1.000000 1.000000
v 1.000000 1.000000 1.000000
vt 0.738050 0.738050
vt 0.998438 0.998438
vt 0.738050 0.998438
vt 0.739300 0.000312
vt 0.999687 0.260700
vt 0.739300 0.260700
vt 0.554553 0.368556
vt 0.554553 0.000312
vt 0.738675 0.184434
vt 0.369806 0.368556
vt 0.369806 0.000312
vt 0.553928 0.184434
vt 0.368556 0.553303
vt 0.000312 0.553303
vt 0.184434 0.369181
vt 0.369181 0.369181
vt 0.737425 0.369181
vt 0.553303 0.553303
vt 0.000312 0.922797
vt 0.184434 0.738675
vt 0.368556 0.922797
vt 0.000312 0.738050
vt 0.184434 0.553928
vt 0.368556 0.738050
vt 0.922172 0.737425
vt 0.738050 0.553303
vt 0.922172 0.369181
vt 0.553303 0.922172
vt 0.369181 0.738050
vt 0.553303 0.553928
vt 0.000312 0.000312
vt 0.184434 0.184434
vt 0.000312 0.368556
vt 0.369181 0.368556
vt 0.185059 0.184434
vt 0.369181 0.000312
vn -1.0000 0.0000 0.0000
vn 0.0000 0.0000 -1.0000
vn 1.0000 0.0000 0.0000
vn 0.0000 0.0000 1.0000
vn 0.0000 -1.0000 0.0000
vn 0.0000 1.0000 0.0000
s off
f 16/1/1 9/2/1 12/3/1
f 22/4/2 23/5/2 11/6/2
f 8/7/3 30/8/3 25/9/3
f 36/10/4 13/11/4 32/12/4
f 7/13/5 1/14/5 3/15/5
f 4/16/6 6/17/6 29/18/6
f 17/19/1 19/20/1 10/21/1
f 20/22/2 27/23/2 24/24/2
f 28/25/3 33/26/3 31/27/3
f 34/28/4 18/29/4 14/30/4
f 26/31/5 5/32/5 15/33/5
f 21/34/6 2/35/6 35/36/6
